<?xml version="1.0" encoding="UTF-8"?>
<!DOCTYPE svg PUBLIC "-//W3C//DTD SVG 1.1//EN" "http://www.w3.org/Graphics/SVG/1.1/DTD/svg11.dtd">
<!-- Creator: CorelDRAW 2017 -->
<svg xmlns="http://www.w3.org/2000/svg" xml:space="preserve" width="1000px" height="1000px" version="1.1" style="shape-rendering:geometricPrecision; text-rendering:geometricPrecision; image-rendering:optimizeQuality; fill-rule:evenodd; clip-rule:evenodd"
viewBox="0 0 4.55 4.55"
 xmlns:xlink="http://www.w3.org/1999/xlink">
 <defs>
  <style type="text/css">
   <![CDATA[
    .fil0 {fill:none}
    .fil1 {fill:#FEFEFE}
   ]]>
  </style>
 </defs>
 <g id="Layer_x0020_1">
  <metadata id="CorelCorpID_0Corel-Layer"/>
  <g id="_2813503512848">
   <rect class="fil0" width="4.55" height="4.55"/>
   <path class="fil1" d="M1.47 1.72l1.62 0 0 1.48c0,0.08 -0.07,0.14 -0.14,0.14l-1.34 0c-0.08,0 -0.14,-0.06 -0.14,-0.14l0 -1.48zm1.62 -0.35c0.06,0 0.1,0.05 0.1,0.11 0,0.06 -0.04,0.11 -0.1,0.11l-1.62 0c-0.06,0 -0.11,-0.05 -0.11,-0.11 0,-0.06 0.05,-0.11 0.11,-0.11l0.64 0c0,-0.25 0.33,-0.25 0.33,0l0.65 0zm-0.4 0.72l0 0.86c0,0.06 -0.04,0.1 -0.1,0.1 -0.06,0 -0.11,-0.04 -0.11,-0.1l0 -0.86c0,-0.06 0.05,-0.11 0.11,-0.11 0.06,0 0.1,0.05 0.1,0.11zm-0.62 0l0 0.86c0,0.06 -0.05,0.1 -0.1,0.1 -0.06,0 -0.11,-0.04 -0.11,-0.1l0 -0.86c0,-0.06 0.05,-0.11 0.11,-0.11 0.05,0 0.1,0.05 0.1,0.11z"/>
  </g>
 </g>
</svg>
